<svg width="51" height="61" viewBox="0 0 51 61" fill="none" xmlns="http://www.w3.org/2000/svg">
<g filter="url(#filter0_d_0_559)">
<mask id="path-1-outside-1_0_559" maskUnits="userSpaceOnUse" x="2" y="1" width="47" height="57" fill="black">
<rect fill="white" x="2" y="1" width="47" height="57"/>
<path fill-rule="evenodd" clip-rule="evenodd" d="M20.3068 57C20.3068 57 12.6715 50.3264 9.98531 45.2143C7.2991 40.1022 2.20888 33.5897 3.10428 29.5C3.99968 25.4103 7.2991 24.1215 9.98531 27.1887C12.6715 30.256 14.481 36.9017 16.2718 35.8793C18.0626 34.8569 16.7195 25.1439 14.9287 19.5206C13.1379 13.8973 11.2709 2 14.9287 2C18.5866 2 18.5866 5.92857 20.3068 11.8214C22.0271 17.7143 20.684 25.5714 22.0271 25.5714C23.3702 25.5714 23.8827 24.1989 23.8827 21.6429C23.8827 20.9482 24.002 20.3611 24.2442 19.8744C24.8931 18.5702 26.4246 17.9869 28.9081 17.9869C32.3185 17.9869 30.6284 25.5714 32.3486 25.5714C34.0689 25.5714 34.0689 25.7325 34.0689 21.6429C34.0689 17.5532 35.6641 17.9869 39.1046 17.9869C42.5451 17.9869 40.8794 25.5714 42.6702 25.5714C44.461 25.5714 42.6702 21.6429 44.3904 21.6429C46.1107 21.6429 47.831 22.2625 47.831 31.4643C47.831 40.6661 48.7969 41.1246 46.1107 45.2143C43.4245 49.304 40.9499 53.0714 40.9499 53.0714C40.9499 53.0714 40.9499 57 39.1046 57C37.2592 57 36.3074 53.0714 34.0689 53.0714C31.8304 53.0714 30.6284 57 30.6284 57H20.3068Z"/>
</mask>
<path fill-rule="evenodd" clip-rule="evenodd" d="M20.3068 57C20.3068 57 12.6715 50.3264 9.98531 45.2143C7.2991 40.1022 2.20888 33.5897 3.10428 29.5C3.99968 25.4103 7.2991 24.1215 9.98531 27.1887C12.6715 30.256 14.481 36.9017 16.2718 35.8793C18.0626 34.8569 16.7195 25.1439 14.9287 19.5206C13.1379 13.8973 11.2709 2 14.9287 2C18.5866 2 18.5866 5.92857 20.3068 11.8214C22.0271 17.7143 20.684 25.5714 22.0271 25.5714C23.3702 25.5714 23.8827 24.1989 23.8827 21.6429C23.8827 20.9482 24.002 20.3611 24.2442 19.8744C24.8931 18.5702 26.4246 17.9869 28.9081 17.9869C32.3185 17.9869 30.6284 25.5714 32.3486 25.5714C34.0689 25.5714 34.0689 25.7325 34.0689 21.6429C34.0689 17.5532 35.6641 17.9869 39.1046 17.9869C42.5451 17.9869 40.8794 25.5714 42.6702 25.5714C44.461 25.5714 42.6702 21.6429 44.3904 21.6429C46.1107 21.6429 47.831 22.2625 47.831 31.4643C47.831 40.6661 48.7969 41.1246 46.1107 45.2143C43.4245 49.304 40.9499 53.0714 40.9499 53.0714C40.9499 53.0714 40.9499 57 39.1046 57C37.2592 57 36.3074 53.0714 34.0689 53.0714C31.8304 53.0714 30.6284 57 30.6284 57H20.3068Z" fill="white"/>
<path d="M20.3068 57L19.6488 57.7529L19.9314 58H20.3068V57ZM3.10428 29.5L4.08114 29.7139L3.10428 29.5ZM9.98531 27.1887L9.23302 27.8475L9.23302 27.8475L9.98531 27.1887ZM16.2718 35.8793L15.776 35.0109L15.776 35.0109L16.2718 35.8793ZM14.9287 19.5206L15.8816 19.2171L15.8816 19.2171L14.9287 19.5206ZM14.9287 2L14.9287 1L14.9287 1L14.9287 2ZM22.0271 25.5714L22.0271 26.5714L22.0271 26.5714L22.0271 25.5714ZM23.8827 21.6429L22.8827 21.6429L23.8827 21.6429ZM24.2442 19.8744L23.3489 19.429L23.3489 19.429L24.2442 19.8744ZM28.9081 17.9869L28.9081 16.9869L28.9081 16.9869L28.9081 17.9869ZM32.3486 25.5714L32.3486 24.5714L32.3486 24.5714L32.3486 25.5714ZM34.0689 21.6429L33.0689 21.6429L34.0689 21.6429ZM39.1046 17.9869L39.1046 16.9869L39.1046 16.9869L39.1046 17.9869ZM42.6702 25.5714L42.6702 26.5714L42.6702 26.5714L42.6702 25.5714ZM44.3904 21.6429L44.3904 20.6429L44.3904 20.6429L44.3904 21.6429ZM47.831 31.4643L46.831 31.4643L47.831 31.4643ZM46.1107 45.2143L46.9465 45.7633L46.9465 45.7633L46.1107 45.2143ZM40.9499 53.0714L40.1141 52.5224L39.9499 52.7724L39.9499 53.0714L40.9499 53.0714ZM39.1046 57L39.1046 56L39.1046 56L39.1046 57ZM34.0689 53.0714L34.0689 52.0714L34.0689 53.0714ZM30.6284 57V58H31.3682L31.5846 57.2926L30.6284 57ZM20.3068 57C20.9649 56.2471 20.965 56.2471 20.965 56.2471C20.965 56.2471 20.965 56.2471 20.9649 56.247C20.9648 56.2469 20.9645 56.2467 20.9642 56.2464C20.9634 56.2457 20.9623 56.2447 20.9606 56.2433C20.9574 56.2404 20.9523 56.236 20.9454 56.2299C20.9317 56.2179 20.911 56.1996 20.8836 56.1753C20.8288 56.1267 20.7473 56.0542 20.6422 55.9597C20.432 55.7707 20.1275 55.4939 19.7533 55.1455C19.0043 54.4482 17.9783 53.466 16.8702 52.3269C14.631 50.025 12.141 47.1669 10.8705 44.7491L9.10008 45.6794C10.5158 48.3738 13.1866 51.4085 15.4366 53.7215C16.5731 54.8898 17.6238 55.8955 18.3904 56.6093C18.774 56.9664 19.087 57.2509 19.3049 57.4468C19.4138 57.5448 19.499 57.6206 19.5573 57.6723C19.5865 57.6981 19.6089 57.7179 19.6243 57.7315C19.632 57.7382 19.6379 57.7434 19.642 57.747C19.644 57.7488 19.6456 57.7502 19.6468 57.7512C19.6473 57.7517 19.6478 57.7521 19.6481 57.7524C19.6483 57.7525 19.6484 57.7527 19.6485 57.7527C19.6486 57.7528 19.6488 57.7529 20.3068 57ZM10.8705 44.7491C10.1828 43.4402 9.34503 42.0489 8.50713 40.6606C7.66297 39.262 6.81645 37.863 6.08211 36.4995C5.34658 35.1339 4.74447 33.8415 4.3789 32.6651C4.01064 31.48 3.9096 30.4974 4.08114 29.7139L2.12742 29.2861C1.85126 30.5475 2.05072 31.9125 2.46899 33.2586C2.88995 34.6132 3.56039 36.0352 4.32127 37.4479C5.08334 38.8628 5.95707 40.3061 6.79484 41.6941C7.63887 43.0925 8.44475 44.4323 9.10008 45.6794L10.8705 44.7491ZM4.08114 29.7139C4.48598 27.8648 5.37718 26.8966 6.20664 26.6033C6.97587 26.3313 8.0669 26.516 9.23302 27.8475L10.7376 26.5299C9.21751 24.7942 7.31573 24.0897 5.53984 24.7177C3.82419 25.3244 2.61798 27.0455 2.12742 29.2861L4.08114 29.7139ZM9.23302 27.8475C10.4746 29.2653 11.5191 31.5249 12.58 33.5345C13.0808 34.4831 13.6083 35.4159 14.1608 36.0443C14.4365 36.358 14.7895 36.6801 15.2284 36.8545C15.7228 37.051 16.2666 37.0338 16.7676 36.7477L15.776 35.0109C15.8294 34.9804 15.9248 34.9791 15.967 34.9959C15.9678 34.9962 15.9605 34.9934 15.9453 34.9841C15.9299 34.9749 15.9083 34.9602 15.8804 34.9379C15.8233 34.8924 15.7506 34.8236 15.6629 34.7238C15.2884 34.2978 14.8599 33.5692 14.3487 32.6008C13.3855 30.7763 12.1822 28.1794 10.7376 26.5299L9.23302 27.8475ZM16.7676 36.7477C17.3023 36.4425 17.5845 35.9037 17.7455 35.4441C17.9155 34.9588 18.0131 34.3811 18.0656 33.7681C18.1713 32.5363 18.1089 30.9802 17.9381 29.3228C17.5959 26.0018 16.7996 22.0998 15.8816 19.2171L13.9759 19.824C14.8486 22.5646 15.6193 26.3308 15.9486 29.5277C16.1137 31.1293 16.1632 32.5446 16.0729 33.5973C16.0276 34.1265 15.9503 34.5192 15.858 34.7829C15.7566 35.0721 15.6891 35.0605 15.776 35.0109L16.7676 36.7477ZM15.8816 19.2171C15.0086 16.4758 14.1112 12.1763 13.8835 8.5882C13.7688 6.78153 13.8306 5.2453 14.1018 4.19734C14.2375 3.673 14.4051 3.35434 14.5562 3.18229C14.6792 3.04241 14.7843 3 14.9287 3L14.9287 1C14.1587 1 13.522 1.32938 13.0539 1.8621C12.614 2.36264 12.3413 3.01739 12.1656 3.69629C11.8141 5.05478 11.7688 6.84432 11.8875 8.71488C12.1265 12.4812 13.0581 16.942 13.9759 19.824L15.8816 19.2171ZM14.9287 3C15.6468 3 16.0909 3.1857 16.4224 3.46764C16.7823 3.77373 17.1033 4.27323 17.4131 5.06516C17.7225 5.85621 17.9843 6.83967 18.285 8.04318C18.5811 9.22837 18.9098 10.6044 19.3469 12.1017L21.2668 11.5412C20.8437 10.092 20.5274 8.76717 20.2253 7.55838C19.9279 6.36792 19.6385 5.26433 19.2757 4.33663C18.9132 3.4098 18.4409 2.55886 17.7182 1.94419C16.9672 1.30537 16.0396 1 14.9287 1L14.9287 3ZM19.3469 12.1017C20.1639 14.9002 20.2611 18.2063 20.3086 20.9237C20.3316 22.2457 20.3433 23.4732 20.4394 24.3595C20.4865 24.7933 20.5623 25.2436 20.7163 25.6099C20.8602 25.9521 21.2379 26.5714 22.0271 26.5714L22.0271 24.5714C22.4805 24.5714 22.6064 24.9453 22.56 24.8347C22.5236 24.7483 22.4706 24.5387 22.4278 24.1439C22.3442 23.3728 22.3323 22.2677 22.3083 20.8888C22.2614 18.2044 22.1701 14.6356 21.2668 11.5412L19.3469 12.1017ZM22.0271 26.5714C22.5428 26.5714 23.0358 26.4361 23.4635 26.1318C23.8823 25.8337 24.1716 25.4214 24.3716 24.9735C24.7573 24.1102 24.8827 22.9512 24.8827 21.6429L22.8827 21.6429C22.8827 22.8905 22.7519 23.6959 22.5456 24.1578C22.4496 24.3726 22.3589 24.4631 22.3038 24.5023C22.2577 24.5352 22.183 24.5714 22.0271 24.5714L22.0271 26.5714ZM24.8827 21.6429C24.8827 21.0598 24.9831 20.6343 25.1395 20.3199L23.3489 19.429C23.021 20.088 22.8827 20.8366 22.8827 21.6429L24.8827 21.6429ZM25.1395 20.3199C25.5149 19.5654 26.4922 18.9869 28.9081 18.9869L28.9081 16.9869C26.3569 16.9869 24.2713 17.5751 23.3489 19.429L25.1395 20.3199ZM28.9081 18.9869C29.135 18.9869 29.2721 19.0453 29.3742 19.12C29.4896 19.2043 29.6181 19.3537 29.7444 19.6116C30.0098 20.1539 30.1597 20.9483 30.2688 21.8938C30.3677 22.7511 30.4374 23.8185 30.5829 24.5752C30.6569 24.96 30.7714 25.3988 30.9905 25.762C31.2324 26.1631 31.6747 26.5714 32.3486 26.5714L32.3486 24.5714C32.5926 24.5714 32.7113 24.7427 32.7031 24.7291C32.672 24.6775 32.6097 24.5238 32.5469 24.1975C32.419 23.5321 32.3755 22.7034 32.2556 21.6645C32.1459 20.714 31.9714 19.6122 31.5407 18.7324C31.319 18.2793 31.0066 17.8361 30.5549 17.5057C30.09 17.1656 29.5339 16.9869 28.9081 16.9869V18.9869ZM32.3486 26.5714C32.7005 26.5714 33.1716 26.5874 33.5409 26.513C33.7581 26.4691 34.0094 26.3848 34.2456 26.2092C34.4875 26.0293 34.6525 25.7993 34.7635 25.5561C34.9597 25.1264 35.0142 24.5851 35.0409 24.03C35.0692 23.4401 35.0689 22.6544 35.0689 21.6429L33.0689 21.6429C33.0689 22.6762 33.0686 23.4039 33.0432 23.9341C33.0306 24.1968 33.0127 24.387 32.9906 24.5261C32.9797 24.5943 32.969 24.6433 32.9597 24.6775C32.9504 24.7117 32.9441 24.7256 32.9442 24.7254C32.9477 24.7177 32.9783 24.6592 33.0523 24.6042C33.1205 24.5535 33.1701 24.5475 33.1454 24.5524C33.0309 24.5755 32.857 24.5714 32.3486 24.5714V26.5714ZM35.0689 21.6429C35.0689 20.6652 35.1672 20.0681 35.3066 19.7018C35.4284 19.3815 35.5703 19.2601 35.7336 19.1807C35.9526 19.0743 36.3 19.0045 36.9029 18.9824C37.5158 18.9599 38.1884 18.9869 39.1046 18.9869L39.1046 16.9869C38.3005 16.9869 37.4835 16.9597 36.8296 16.9837C36.1658 17.0081 35.4693 17.0855 34.8595 17.3818C34.194 17.7052 33.722 18.2422 33.4372 18.9907C33.17 19.6934 33.0689 20.5757 33.0689 21.6429L35.0689 21.6429ZM39.1046 18.9869C39.3372 18.9869 39.4799 19.0465 39.5867 19.1236C39.7063 19.2099 39.8378 19.3611 39.967 19.6193C40.2387 20.1625 40.3952 20.9569 40.5138 21.9035C40.6215 22.7633 40.7025 23.8293 40.8628 24.592C40.9442 24.9796 41.0689 25.4205 41.3014 25.7841C41.5593 26.1877 42.0094 26.5714 42.6702 26.5714L42.6702 24.5714C42.8833 24.5714 42.9936 24.7181 42.9865 24.707C42.9538 24.6558 42.888 24.5042 42.82 24.1807C42.6814 23.5213 42.6281 22.6912 42.4983 21.6549C42.3793 20.7053 42.1953 19.6036 41.7557 18.7247C41.5292 18.2719 41.2124 17.8305 40.7575 17.5021C40.2899 17.1644 39.7321 16.9869 39.1046 16.9869V18.9869ZM42.6702 26.5714C43.0887 26.5714 43.4998 26.4512 43.8371 26.163C44.1578 25.8892 44.3215 25.5402 44.4102 25.2457C44.5739 24.7014 44.5607 24.0405 44.5567 23.5982C44.5518 23.0518 44.5556 22.7254 44.6115 22.5236C44.6337 22.4434 44.6386 22.4887 44.5656 22.5544C44.4719 22.639 44.3803 22.6429 44.3904 22.6429L44.3904 20.6429C43.9705 20.6429 43.5586 20.7695 43.2265 21.0689C42.9153 21.3495 42.7638 21.7017 42.684 21.9898C42.5359 22.5246 42.5529 23.1804 42.5568 23.6161C42.5617 24.1559 42.5528 24.4771 42.495 24.6695C42.4728 24.7433 42.4691 24.7012 42.5383 24.6422C42.6241 24.5689 42.6994 24.5714 42.6702 24.5714L42.6702 26.5714ZM44.3904 22.6429C44.7727 22.6429 45.0137 22.6813 45.2061 22.7776C45.3761 22.8628 45.6123 23.0463 45.8593 23.546C46.3918 24.6234 46.831 26.8679 46.831 31.4643L48.831 31.4643C48.831 26.8589 48.41 24.1927 47.6523 22.6598C47.2542 21.8544 46.7377 21.3079 46.1015 20.9893C45.4875 20.6819 44.8684 20.6429 44.3904 20.6429V22.6429ZM46.831 31.4643C46.831 33.783 46.8919 35.5515 46.9405 36.9543C46.9897 38.3715 47.0239 39.369 46.9796 40.2033C46.9366 41.013 46.8203 41.6363 46.577 42.2818C46.3279 42.9427 45.9306 43.6669 45.2749 44.6653L46.9465 45.7633C47.6339 44.7168 48.1232 43.8501 48.4485 42.9872C48.7795 42.1089 48.9255 41.2757 48.9768 40.3093C49.0268 39.3676 48.9873 38.2695 48.9393 36.885C48.8908 35.486 48.831 33.7464 48.831 31.4643L46.831 31.4643ZM45.2749 44.6653C43.9318 46.7101 42.6416 48.6744 41.6872 50.1275C41.21 50.854 40.8167 51.4528 40.5427 51.8699C40.4057 52.0784 40.2986 52.2416 40.2257 52.3526C40.1892 52.4081 40.1613 52.4505 40.1425 52.4791C40.1332 52.4934 40.126 52.5043 40.1213 52.5115C40.1189 52.5151 40.1171 52.5179 40.1159 52.5197C40.1154 52.5205 40.1148 52.5214 40.1146 52.5217C40.1145 52.5219 40.1144 52.522 40.1144 52.5221C40.1143 52.5221 40.1143 52.5222 40.1142 52.5223C40.1142 52.5223 40.1141 52.5224 40.1141 52.5224C40.1141 52.5224 40.1141 52.5224 40.9499 53.0714C41.7858 53.6204 41.7858 53.6204 41.7858 53.6204C41.7858 53.6204 41.7858 53.6203 41.7859 53.6203C41.7859 53.6202 41.7861 53.6199 41.7862 53.6197C41.7865 53.6193 41.787 53.6185 41.7876 53.6177C41.7888 53.6158 41.7905 53.6131 41.7929 53.6095C41.7977 53.6022 41.8048 53.5914 41.8142 53.5771C41.833 53.5485 41.8609 53.5061 41.8973 53.4506C41.9702 53.3395 42.0774 53.1764 42.2144 52.9679C42.4883 52.5508 42.8816 51.952 43.3588 51.2255C44.3132 49.7724 45.6034 47.8081 46.9465 45.7633L45.2749 44.6653ZM40.9499 53.0714C39.9499 53.0714 39.9499 53.0712 39.9499 53.071C39.9499 53.071 39.9499 53.0708 39.9499 53.0707C39.9499 53.0705 39.9499 53.0704 39.9499 53.0703C39.9499 53.0702 39.9499 53.0702 39.9499 53.0705C39.9499 53.0712 39.9499 53.0727 39.9499 53.0751C39.9499 53.08 39.9498 53.0883 39.9496 53.0999C39.9492 53.1231 39.9485 53.1594 39.9469 53.2067C39.9437 53.3016 39.9372 53.44 39.9241 53.6072C39.8976 53.9458 39.8455 54.3825 39.7457 54.8071C39.6425 55.2466 39.5061 55.5942 39.354 55.8102C39.2192 56.0015 39.1454 56 39.1046 56V58C39.9865 58 40.6047 57.5074 40.9889 56.9621C41.3557 56.4415 41.5653 55.807 41.6928 55.2644C41.8237 54.7068 41.8869 54.1613 41.918 53.7633C41.9338 53.5622 41.9417 53.3937 41.9458 53.2738C41.9478 53.2137 41.9488 53.1655 41.9494 53.1312C41.9496 53.114 41.9498 53.1003 41.9498 53.0903C41.9499 53.0853 41.9499 53.0812 41.9499 53.078C41.9499 53.0764 41.9499 53.0751 41.9499 53.074C41.9499 53.0734 41.9499 53.073 41.9499 53.0725C41.9499 53.0723 41.9499 53.072 41.9499 53.0719C41.9499 53.0717 41.9499 53.0714 40.9499 53.0714ZM39.1046 56C39.0229 56 38.8555 55.9613 38.5465 55.6647C38.233 55.3638 37.9273 54.9516 37.5295 54.4296C37.1612 53.9462 36.7149 53.3714 36.1886 52.9237C35.6481 52.4638 34.9471 52.0714 34.0689 52.0714L34.0689 54.0714C34.31 54.0714 34.5673 54.1701 34.8926 54.4469C35.232 54.7357 35.5587 55.1431 35.9388 55.6418C36.2894 56.102 36.7076 56.6719 37.1616 57.1076C37.62 57.5476 38.2636 58 39.1046 58L39.1046 56ZM34.0689 52.0714C33.1979 52.0714 32.4802 52.4573 31.9342 52.9277C31.3933 53.3937 30.9683 53.9854 30.6483 54.527C30.3245 55.075 30.0829 55.6153 29.923 56.014C29.8425 56.2148 29.7813 56.3833 29.7396 56.5037C29.7187 56.5639 29.7026 56.6123 29.6914 56.6468C29.6858 56.6641 29.6814 56.678 29.6781 56.6881C29.6765 56.6932 29.6752 56.6974 29.6742 56.7006C29.6737 56.7022 29.6733 56.7036 29.673 56.7047C29.6728 56.7053 29.6726 56.7058 29.6725 56.7063C29.6724 56.7065 29.6723 56.7068 29.6723 56.7069C29.6722 56.7072 29.6721 56.7074 30.6284 57C31.5846 57.2926 31.5846 57.2928 31.5845 57.293C31.5845 57.2931 31.5844 57.2933 31.5844 57.2934C31.5843 57.2936 31.5843 57.2937 31.5842 57.2938C31.5842 57.294 31.5842 57.294 31.5843 57.2937C31.5845 57.2931 31.5849 57.2917 31.5857 57.2893C31.5871 57.2846 31.5897 57.2764 31.5935 57.2649C31.6009 57.2419 31.6129 57.2059 31.6292 57.1587C31.662 57.0642 31.7122 56.9258 31.7794 56.7583C31.9148 56.4204 32.1136 55.9785 32.3701 55.5444C32.6305 55.1038 32.9257 54.7134 33.2397 54.4429C33.5486 54.1767 33.8207 54.0714 34.0689 54.0714L34.0689 52.0714ZM30.6284 56H20.3068V58H30.6284V56Z" fill="black" mask="url(#path-1-outside-1_0_559)"/>
</g>
<defs>
<filter id="filter0_d_0_559" x="0" y="0" width="51" height="61" filterUnits="userSpaceOnUse" color-interpolation-filters="sRGB">
<feFlood flood-opacity="0" result="BackgroundImageFix"/>
<feColorMatrix in="SourceAlpha" type="matrix" values="0 0 0 0 0 0 0 0 0 0 0 0 0 0 0 0 0 0 127 0" result="hardAlpha"/>
<feOffset dy="1"/>
<feGaussianBlur stdDeviation="1"/>
<feColorMatrix type="matrix" values="0 0 0 0 0 0 0 0 0 0 0 0 0 0 0 0 0 0 1 0"/>
<feBlend mode="normal" in2="BackgroundImageFix" result="effect1_dropShadow_0_559"/>
<feBlend mode="normal" in="SourceGraphic" in2="effect1_dropShadow_0_559" result="shape"/>
</filter>
</defs>
</svg>
