<svg width="207" height="112" viewBox="0 0 207 112" fill="none" xmlns="http://www.w3.org/2000/svg">
<g filter="url(#filter0_d_0_559)">
<mask id="path-1-outside-1_0_559" maskUnits="userSpaceOnUse" x="2" y="1" width="203" height="124" fill="black">
<rect fill="white" x="2" y="1" width="203" height="124"/>
<path fill-rule="evenodd" clip-rule="evenodd" d="M173.729 63.4167C173.729 63.4167 165.467 55.9645 162.56 50.256C159.652 44.5474 154.144 37.2751 155.113 32.7083C156.082 28.1415 159.652 26.7023 162.56 30.1274C165.467 33.5525 167.425 40.9736 169.363 39.8319C171.301 38.6902 169.847 27.844 167.909 21.5646C165.971 15.2853 163.951 2 167.909 2C171.868 2 171.868 6.38691 173.729 12.9673C175.591 19.5476 174.138 28.3214 175.591 28.3214C177.045 28.3214 177.599 26.7888 177.599 23.9345C177.599 23.1589 177.728 22.5033 177.99 21.9598C178.693 20.5034 180.35 19.8521 183.038 19.8521C186.729 19.8521 184.899 28.3214 186.761 28.3214C188.623 28.3214 188.623 28.5013 188.623 23.9345C188.623 19.3677 190.349 19.8521 194.072 19.8521C197.796 19.8521 195.993 28.3214 197.931 28.3214C199.869 28.3214 197.931 23.9345 199.793 23.9345C201.654 23.9345 203.516 24.6265 203.516 34.9018C203.516 45.1771 204.561 45.6891 201.654 50.256C198.747 54.8228 196.069 59.0298 196.069 59.0298C196.069 59.0298 196.069 63.4167 194.072 63.4167C192.075 63.4167 191.045 59.0298 188.623 59.0298C186.2 59.0298 184.899 63.4167 184.899 63.4167H173.729ZM7.40019 123V119.333H6.52013V123H7.40019ZM4.76007 122.083C4.76007 122.332 4.96418 123 5.2001 123C5.44312 123 5.64013 122.336 5.64013 122.083V120.25C5.64013 120.002 5.43601 119.333 5.2001 119.333C4.95708 119.333 4.76007 119.998 4.76007 120.25V122.083ZM3 122.083C3 122.332 3.20412 123 3.44003 123C3.68305 123 3.88006 122.336 3.88006 122.083V120.25C3.88006 120.002 3.67594 119.333 3.44003 119.333C3.19701 119.333 3 119.998 3 120.25V122.083Z"/>
</mask>
<path fill-rule="evenodd" clip-rule="evenodd" d="M173.729 63.4167C173.729 63.4167 165.467 55.9645 162.56 50.256C159.652 44.5474 154.144 37.2751 155.113 32.7083C156.082 28.1415 159.652 26.7023 162.56 30.1274C165.467 33.5525 167.425 40.9736 169.363 39.8319C171.301 38.6902 169.847 27.844 167.909 21.5646C165.971 15.2853 163.951 2 167.909 2C171.868 2 171.868 6.38691 173.729 12.9673C175.591 19.5476 174.138 28.3214 175.591 28.3214C177.045 28.3214 177.599 26.7888 177.599 23.9345C177.599 23.1589 177.728 22.5033 177.99 21.9598C178.693 20.5034 180.35 19.8521 183.038 19.8521C186.729 19.8521 184.899 28.3214 186.761 28.3214C188.623 28.3214 188.623 28.5013 188.623 23.9345C188.623 19.3677 190.349 19.8521 194.072 19.8521C197.796 19.8521 195.993 28.3214 197.931 28.3214C199.869 28.3214 197.931 23.9345 199.793 23.9345C201.654 23.9345 203.516 24.6265 203.516 34.9018C203.516 45.1771 204.561 45.6891 201.654 50.256C198.747 54.8228 196.069 59.0298 196.069 59.0298C196.069 59.0298 196.069 63.4167 194.072 63.4167C192.075 63.4167 191.045 59.0298 188.623 59.0298C186.2 59.0298 184.899 63.4167 184.899 63.4167H173.729ZM7.40019 123V119.333H6.52013V123H7.40019ZM4.76007 122.083C4.76007 122.332 4.96418 123 5.2001 123C5.44312 123 5.64013 122.336 5.64013 122.083V120.25C5.64013 120.002 5.43601 119.333 5.2001 119.333C4.95708 119.333 4.76007 119.998 4.76007 120.25V122.083ZM3 122.083C3 122.332 3.20412 123 3.44003 123C3.68305 123 3.88006 122.336 3.88006 122.083V120.25C3.88006 120.002 3.67594 119.333 3.44003 119.333C3.19701 119.333 3 119.998 3 120.25V122.083Z" fill="white"/>
<path d="M173.729 63.4167L173.06 64.1593L173.345 64.4167H173.729V63.4167ZM155.113 32.7083L156.091 32.9159L155.113 32.7083ZM162.56 30.1274L161.797 30.7745L161.797 30.7745L162.56 30.1274ZM169.363 39.8319L168.855 38.9703L168.855 38.9703L169.363 39.8319ZM167.909 21.5646L168.865 21.2697L168.865 21.2697L167.909 21.5646ZM167.909 2L167.909 1L167.909 1L167.909 2ZM175.591 28.3214L175.591 29.3214L175.591 29.3214L175.591 28.3214ZM177.599 23.9345L176.599 23.9345L177.599 23.9345ZM177.99 21.9598L177.09 21.5254L177.09 21.5254L177.99 21.9598ZM183.038 19.8521L183.038 18.8521L183.038 18.8521L183.038 19.8521ZM186.761 28.3214L186.761 27.3214L186.761 27.3214L186.761 28.3214ZM188.623 23.9345L187.623 23.9345L188.623 23.9345ZM194.072 19.8521L194.072 18.8521L194.072 18.8521L194.072 19.8521ZM197.931 28.3214L197.931 29.3214L197.931 29.3214L197.931 28.3214ZM199.793 23.9345L199.793 22.9345L199.793 22.9345L199.793 23.9345ZM203.516 34.9018L202.516 34.9018L203.516 34.9018ZM201.654 50.256L202.498 50.7929L202.498 50.7929L201.654 50.256ZM196.069 59.0298L195.226 58.4928L195.069 58.7385L195.069 59.0298L196.069 59.0298ZM194.072 63.4167L194.072 62.4167L194.072 62.4167L194.072 63.4167ZM188.623 59.0298L188.623 58.0298L188.623 59.0298ZM184.899 63.4167V64.4167H185.646L185.858 63.701L184.899 63.4167ZM7.40019 123V124H8.40019V123H7.40019ZM7.40019 119.333H8.40019V118.333H7.40019V119.333ZM6.52013 119.333V118.333H5.52013V119.333H6.52013ZM6.52013 123H5.52013V124H6.52013V123ZM173.729 63.4167C174.399 62.6741 174.399 62.6741 174.399 62.6741C174.399 62.6741 174.399 62.6741 174.399 62.674C174.399 62.6739 174.399 62.6736 174.398 62.6733C174.398 62.6725 174.396 62.6714 174.394 62.6697C174.391 62.6665 174.385 62.6615 174.378 62.6547C174.363 62.6412 174.34 62.6207 174.311 62.5935C174.251 62.5391 174.163 62.458 174.049 62.3523C173.821 62.1409 173.491 61.8314 173.086 61.4419C172.274 60.6625 171.163 59.5645 169.962 58.291C167.539 55.7207 164.834 52.519 163.451 49.8022L161.668 50.7097C163.192 53.7014 166.072 57.0801 168.507 59.663C169.736 60.9661 170.871 62.088 171.7 62.8842C172.115 63.2825 172.453 63.5999 172.689 63.8183C172.806 63.9276 172.898 64.0121 172.961 64.0696C172.993 64.0984 173.017 64.1205 173.034 64.1355C173.042 64.143 173.048 64.1488 173.053 64.1528C173.055 64.1547 173.056 64.1563 173.058 64.1574C173.058 64.1579 173.059 64.1583 173.059 64.1587C173.059 64.1588 173.059 64.159 173.06 64.159C173.06 64.1592 173.06 64.1593 173.729 63.4167ZM163.451 49.8022C162.708 48.3445 161.804 46.794 160.896 45.2432C159.983 43.682 159.066 42.117 158.269 40.5913C157.472 39.0635 156.816 37.6116 156.416 36.2856C156.014 34.9512 155.898 33.8258 156.091 32.9159L154.135 32.5008C153.843 33.8742 154.052 35.3704 154.501 36.8624C154.953 38.3628 155.674 39.942 156.496 41.5167C157.319 43.0935 158.263 44.7023 159.17 46.253C160.083 47.8139 160.957 49.3132 161.668 50.7097L163.451 49.8022ZM156.091 32.9159C156.537 30.8158 157.523 29.6993 158.452 29.3603C159.308 29.0479 160.514 29.2631 161.797 30.7745L163.322 29.4803C161.698 27.5666 159.665 26.7888 157.767 27.4815C155.941 28.1475 154.658 30.034 154.135 32.5008L156.091 32.9159ZM161.797 30.7745C163.152 32.3709 164.292 34.9146 165.434 37.1476C165.977 38.2076 166.542 39.2371 167.13 39.9274C167.422 40.2709 167.794 40.6197 168.254 40.8084C168.774 41.0218 169.346 41.0022 169.87 40.6935L168.855 38.9703C168.854 38.9711 168.861 38.9665 168.877 38.9615C168.893 38.9563 168.914 38.952 168.937 38.9506C168.987 38.9475 169.016 38.9592 169.013 38.9579C168.983 38.946 168.861 38.8755 168.652 38.6303C168.237 38.1432 167.768 37.3174 167.215 36.2367C166.167 34.1884 164.874 31.309 163.322 29.4803L161.797 30.7745ZM169.87 40.6935C170.422 40.3684 170.714 39.7956 170.883 39.2982C171.062 38.7719 171.166 38.14 171.222 37.4618C171.336 36.0995 171.269 34.3722 171.085 32.5255C170.715 28.8262 169.855 24.4788 168.865 21.2697L166.954 21.8595C167.901 24.9298 168.737 29.1452 169.094 32.7242C169.273 34.5167 169.328 36.1075 169.229 37.2962C169.18 37.8935 169.095 38.3453 168.989 38.6552C168.874 38.994 168.788 39.01 168.855 38.9703L169.87 40.6935ZM168.865 21.2697C167.917 18.1988 166.943 13.3861 166.696 9.36616C166.572 7.34389 166.638 5.60984 166.937 4.4172C167.087 3.81952 167.275 3.44244 167.455 3.23148C167.606 3.05384 167.739 3 167.909 3L167.909 1C167.09 1 166.42 1.36132 165.932 1.93475C165.472 2.47486 165.184 3.18475 164.997 3.93068C164.622 5.42525 164.572 7.40498 164.7 9.48894C164.958 13.6815 165.964 18.6511 166.954 21.8595L168.865 21.2697ZM167.909 3C168.694 3 169.191 3.20945 169.567 3.53986C169.975 3.8974 170.331 4.47534 170.671 5.37045C171.009 6.26319 171.294 7.36977 171.619 8.71288C171.94 10.038 172.295 11.5709 172.767 13.2395L174.692 12.695C174.233 11.0734 173.89 9.59035 173.563 8.2422C173.241 6.91204 172.93 5.68807 172.541 4.66154C172.153 3.63739 171.651 2.70732 170.887 2.03668C170.091 1.33892 169.103 1 167.909 1L167.909 3ZM172.767 13.2395C173.657 16.3857 173.762 20.0967 173.814 23.1289C173.839 24.6093 173.851 25.971 173.954 26.9522C174.005 27.4334 174.085 27.9192 174.244 28.3089C174.388 28.6627 174.771 29.3214 175.591 29.3214L175.591 27.3214C176.048 27.3214 176.158 27.7059 176.096 27.5542C176.049 27.4385 175.99 27.1873 175.943 26.7432C175.852 25.8737 175.839 24.6306 175.813 23.0951C175.763 20.0953 175.663 16.1292 174.692 12.695L172.767 13.2395ZM175.591 29.3214C176.141 29.3214 176.662 29.1723 177.11 28.8434C177.547 28.5224 177.849 28.079 178.058 27.5956C178.463 26.6592 178.599 25.3905 178.599 23.9345L176.599 23.9345C176.599 25.3328 176.458 26.2575 176.223 26.801C176.112 27.0575 176.002 27.1758 175.926 27.2313C175.861 27.279 175.768 27.3214 175.591 27.3214L175.591 29.3214ZM178.599 23.9345C178.599 23.2665 178.711 22.7683 178.891 22.3942L177.09 21.5254C176.746 22.2383 176.599 23.0512 176.599 23.9345L178.599 23.9345ZM178.891 22.3942C179.327 21.4913 180.431 20.8521 183.038 20.8521L183.038 18.8521C180.269 18.8521 178.059 19.5155 177.09 21.5254L178.891 22.3942ZM183.038 20.8521C183.292 20.8521 183.454 20.9197 183.579 21.0142C183.719 21.1198 183.868 21.3022 184.011 21.604C184.309 22.2324 184.473 23.1411 184.592 24.1979C184.7 25.1684 184.774 26.3429 184.93 27.1813C185.009 27.606 185.129 28.0767 185.355 28.4621C185.6 28.8814 186.054 29.3214 186.761 29.3214L186.761 27.3214C187.003 27.3214 187.107 27.4968 187.081 27.4529C187.036 27.3752 186.965 27.1842 186.896 26.8149C186.756 26.0653 186.707 25.1224 186.579 23.9756C186.461 22.9151 186.273 21.7064 185.818 20.7468C185.585 20.2547 185.257 19.7754 184.784 19.4178C184.295 19.0491 183.706 18.8521 183.038 18.8521V20.8521ZM186.761 29.3214C187.146 29.3214 187.648 29.339 188.041 29.2572C188.272 29.2092 188.534 29.1177 188.777 28.9309C189.025 28.7408 189.192 28.4994 189.305 28.2452C189.505 27.7921 189.564 27.213 189.593 26.5931C189.623 25.9388 189.623 25.0656 189.623 23.9345L187.623 23.9345C187.623 25.0868 187.623 25.9037 187.595 26.5001C187.565 27.1308 187.508 27.3631 187.476 27.4359C187.472 27.4446 187.494 27.3948 187.56 27.3441C187.621 27.2968 187.665 27.2927 187.634 27.2992C187.503 27.3264 187.307 27.3214 186.761 27.3214V29.3214ZM189.623 23.9345C189.623 21.668 190.074 21.2381 190.4 21.0747C190.649 20.9496 191.035 20.8718 191.688 20.847C192.352 20.8219 193.084 20.8521 194.072 20.8521L194.072 18.8521C193.199 18.8521 192.319 18.8217 191.612 18.8485C190.895 18.8756 190.151 18.9621 189.503 19.2868C188.035 20.0229 187.623 21.6343 187.623 23.9345L189.623 23.9345ZM194.072 20.8521C194.333 20.8521 194.5 20.921 194.63 21.0179C194.775 21.1254 194.927 21.3096 195.074 21.6116C195.379 22.2408 195.55 23.1494 195.679 24.2073C195.797 25.1803 195.882 26.3534 196.054 27.1977C196.141 27.6251 196.272 28.0979 196.512 28.4841C196.774 28.9071 197.237 29.3214 197.931 29.3214L197.931 27.3214C198.141 27.3214 198.237 27.4711 198.212 27.4309C198.164 27.3539 198.089 27.1651 198.014 26.7985C197.863 26.0547 197.803 25.1106 197.664 23.9663C197.535 22.9067 197.338 21.698 196.873 20.7392C196.635 20.2473 196.303 19.7697 195.825 19.4141C195.334 19.0478 194.743 18.8521 194.072 18.8521V20.8521ZM197.931 29.3214C198.376 29.3214 198.805 29.1891 199.152 28.8832C199.48 28.5943 199.647 28.2275 199.738 27.9159C199.908 27.3334 199.895 26.6202 199.891 26.1193C199.885 25.5171 199.888 25.1285 199.955 24.8792C199.983 24.7732 199.998 24.8 199.939 24.8552C199.856 24.9324 199.774 24.9345 199.793 24.9345L199.793 22.9345C199.347 22.9345 198.918 23.0738 198.577 23.3908C198.259 23.686 198.105 24.0555 198.023 24.3607C197.869 24.934 197.886 25.6421 197.891 26.1367C197.896 26.7325 197.888 27.116 197.818 27.356C197.789 27.4557 197.774 27.4317 197.83 27.3827C197.905 27.3166 197.971 27.3214 197.931 27.3214L197.931 29.3214ZM199.793 24.9345C200.208 24.9345 200.479 24.9772 200.701 25.0916C200.902 25.1956 201.173 25.4176 201.451 25.9969C202.042 27.2311 202.516 29.7677 202.516 34.9018L204.516 34.9018C204.516 29.7605 204.06 26.8135 203.254 25.1329C202.834 24.2549 202.29 23.6616 201.619 23.3148C200.968 22.9784 200.308 22.9345 199.793 22.9345V24.9345ZM202.516 34.9018C202.516 37.4884 202.582 39.461 202.635 41.0272C202.688 42.6073 202.725 43.7286 202.677 44.6682C202.63 45.5841 202.502 46.2952 202.232 47.0321C201.958 47.7836 201.522 48.6015 200.811 49.719L202.498 50.7929C203.24 49.627 203.764 48.6684 204.111 47.7183C204.463 46.7537 204.619 45.8383 204.674 44.7709C204.728 43.7272 204.686 42.5084 204.633 40.96C204.581 39.3975 204.516 37.4529 204.516 34.9018L202.516 34.9018ZM200.811 49.719C199.357 52.0024 197.961 54.1958 196.928 55.8184C196.412 56.6297 195.986 57.2983 195.69 57.7641C195.542 57.997 195.426 58.1791 195.347 58.3031C195.307 58.3651 195.277 58.4125 195.257 58.4444C195.247 58.4604 195.239 58.4725 195.234 58.4806C195.231 58.4846 195.229 58.4877 195.228 58.4897C195.227 58.4907 195.227 58.4915 195.226 58.492C195.226 58.4922 195.226 58.4925 195.226 58.4926C195.226 58.4926 195.226 58.4927 195.226 58.4927C195.226 58.4928 195.226 58.4928 196.069 59.0298C196.913 59.5668 196.913 59.5667 196.913 59.5667C196.913 59.5667 196.913 59.5666 196.913 59.5666C196.913 59.5664 196.913 59.5663 196.914 59.566C196.914 59.5655 196.914 59.5647 196.915 59.5637C196.916 59.5616 196.918 59.5586 196.921 59.5545C196.926 59.5464 196.934 59.5344 196.944 59.5184C196.964 59.4865 196.994 59.439 197.034 59.3771C197.113 59.2531 197.229 59.0709 197.377 58.8381C197.673 58.3723 198.099 57.7037 198.615 56.8924C199.648 55.2698 201.045 53.0763 202.498 50.7929L200.811 49.719ZM196.069 59.0298C195.069 59.0298 195.069 59.0296 195.069 59.0294C195.069 59.0293 195.069 59.0292 195.069 59.0291C195.069 59.0289 195.069 59.0288 195.069 59.0288C195.069 59.0287 195.069 59.0289 195.069 59.0293C195.069 59.0302 195.069 59.0321 195.069 59.035C195.069 59.0408 195.069 59.0505 195.069 59.0639C195.069 59.0906 195.068 59.1319 195.066 59.1858C195.063 59.2936 195.055 59.4504 195.041 59.6396C195.012 60.0221 194.955 60.5176 194.845 61.0013C194.731 61.5003 194.579 61.9074 194.401 62.1673C194.239 62.4051 194.137 62.4167 194.072 62.4167V64.4167C195.007 64.4167 195.654 63.8798 196.053 63.2951C196.437 62.7325 196.659 62.0429 196.795 61.4452C196.934 60.8321 197.002 60.2309 197.035 59.7909C197.052 59.5688 197.061 59.3829 197.065 59.2508C197.067 59.1846 197.068 59.1317 197.069 59.0942C197.069 59.0754 197.069 59.0605 197.069 59.0497C197.069 59.0443 197.069 59.0399 197.069 59.0366C197.069 59.0349 197.069 59.0335 197.069 59.0324C197.069 59.0318 197.069 59.0313 197.069 59.0309C197.069 59.0306 197.069 59.0304 197.069 59.0303C197.069 59.03 197.069 59.0298 196.069 59.0298ZM194.072 62.4167C193.965 62.4167 193.767 62.3618 193.423 62.0207C193.076 61.6777 192.74 61.2088 192.312 60.6291C191.913 60.089 191.436 59.4559 190.875 58.9637C190.302 58.4601 189.557 58.0298 188.623 58.0298L188.623 60.0298C188.899 60.0298 189.192 60.1478 189.556 60.4667C189.932 60.7971 190.292 61.2607 190.703 61.8173C191.085 62.3343 191.531 62.9622 192.015 63.4417C192.502 63.9232 193.182 64.4167 194.072 64.4167L194.072 62.4167ZM188.623 58.0298C187.695 58.0298 186.933 58.4533 186.355 58.9679C185.78 59.4786 185.327 60.1284 184.985 60.7263C184.639 61.3311 184.38 61.928 184.208 62.369C184.122 62.591 184.057 62.7771 184.012 62.9097C183.99 62.9761 183.973 63.0292 183.961 63.067C183.955 63.0859 183.95 63.101 183.947 63.112C183.945 63.1175 183.944 63.1219 183.943 63.1253C183.942 63.1271 183.942 63.1285 183.942 63.1297C183.941 63.1303 183.941 63.1308 183.941 63.1312C183.941 63.1315 183.941 63.1317 183.941 63.1319C183.941 63.1321 183.941 63.1324 184.899 63.4167C185.858 63.701 185.858 63.7012 185.858 63.7014C185.858 63.7014 185.858 63.7016 185.858 63.7017C185.858 63.7019 185.858 63.702 185.858 63.7021C185.858 63.7022 185.858 63.702 185.858 63.7016C185.858 63.7008 185.859 63.699 185.86 63.6962C185.861 63.6906 185.864 63.681 185.869 63.6678C185.877 63.6413 185.89 63.6002 185.908 63.5466C185.944 63.4393 185.999 63.2827 186.073 63.0934C186.221 62.7119 186.439 62.2121 186.721 61.7201C187.006 61.2213 187.333 60.7744 187.683 60.4626C188.03 60.1546 188.339 60.0298 188.623 60.0298L188.623 58.0298ZM184.899 62.4167H173.729V64.4167H184.899V62.4167ZM8.40019 123V119.333H6.40019V123H8.40019ZM7.40019 118.333H6.52013V120.333H7.40019V118.333ZM5.52013 119.333V123H7.52013V119.333H5.52013ZM6.52013 124H7.40019V122H6.52013V124ZM3.76007 122.083C3.76007 122.382 3.85664 122.744 3.96519 123.011C4.02297 123.154 4.11229 123.34 4.24568 123.51C4.34661 123.638 4.66215 124 5.2001 124V122C5.41564 122 5.57665 122.078 5.6679 122.139C5.75499 122.197 5.8025 122.254 5.81795 122.274C5.84672 122.31 5.84078 122.314 5.81803 122.258C5.79915 122.212 5.78144 122.155 5.76937 122.104C5.75446 122.04 5.76007 122.036 5.76007 122.083H3.76007ZM5.2001 124C5.72926 124 6.04466 123.652 6.15412 123.515C6.29083 123.343 6.381 123.154 6.43877 123.01C6.54846 122.738 6.64013 122.378 6.64013 122.083H4.64013C4.64013 122.041 4.6447 122.049 4.63051 122.111C4.61877 122.163 4.60168 122.218 4.58372 122.263C4.56186 122.317 4.55721 122.31 4.58863 122.27C4.60569 122.249 4.65463 122.191 4.74306 122.133C4.83638 122.072 4.99355 122 5.2001 122V124ZM6.64013 122.083V120.25H4.64013V122.083H6.64013ZM6.64013 120.25C6.64013 119.952 6.54355 119.589 6.435 119.322C6.37723 119.18 6.28791 118.993 6.15452 118.824C6.05358 118.695 5.73804 118.333 5.2001 118.333V120.333C4.98455 120.333 4.82355 120.256 4.73229 120.195C4.6452 120.137 4.59769 120.08 4.58224 120.06C4.55347 120.023 4.55941 120.019 4.58216 120.075C4.60104 120.122 4.61876 120.178 4.63083 120.23C4.64573 120.294 4.64013 120.298 4.64013 120.25H6.64013ZM5.2001 118.333C4.67094 118.333 4.35553 118.681 4.24607 118.819C4.10937 118.991 4.01919 119.18 3.96142 119.323C3.85174 119.596 3.76007 119.956 3.76007 120.25H5.76007C5.76007 120.292 5.75549 120.285 5.76968 120.222C5.78143 120.171 5.79851 120.115 5.81647 120.071C5.83833 120.017 5.84298 120.024 5.81156 120.064C5.7945 120.085 5.74556 120.143 5.65714 120.2C5.56382 120.261 5.40664 120.333 5.2001 120.333V118.333ZM3.76007 120.25V122.083H5.76007V120.25H3.76007ZM2 122.083C2 122.382 2.09658 122.744 2.20513 123.011C2.2629 123.154 2.35222 123.34 2.48561 123.51C2.58655 123.638 2.90208 124 3.44003 124V122C3.65557 122 3.81658 122.078 3.90784 122.139C3.99492 122.197 4.04244 122.254 4.05789 122.274C4.08666 122.31 4.08071 122.314 4.05797 122.258C4.03909 122.212 4.02137 122.155 4.0093 122.104C3.99439 122.04 4 122.036 4 122.083H2ZM3.44003 124C3.96919 124 4.2846 123.652 4.39406 123.515C4.53076 123.343 4.62093 123.154 4.6787 123.01C4.78839 122.738 4.88006 122.378 4.88006 122.083H2.88006C2.88006 122.041 2.88464 122.049 2.87045 122.111C2.8587 122.163 2.84161 122.218 2.82365 122.263C2.80179 122.317 2.79715 122.31 2.82856 122.27C2.84563 122.249 2.89457 122.191 2.98299 122.133C3.07631 122.072 3.23348 122 3.44003 122V124ZM4.88006 122.083V120.25H2.88006V122.083H4.88006ZM4.88006 120.25C4.88006 119.952 4.78348 119.589 4.67493 119.322C4.61716 119.18 4.52784 118.993 4.39445 118.824C4.29351 118.695 3.97798 118.333 3.44003 118.333V120.333C3.22449 120.333 3.06348 120.256 2.97222 120.195C2.88514 120.137 2.83762 120.08 2.82217 120.06C2.7934 120.023 2.79935 120.019 2.82209 120.075C2.84097 120.122 2.85869 120.178 2.87076 120.23C2.88567 120.294 2.88006 120.298 2.88006 120.25H4.88006ZM3.44003 118.333C2.91087 118.333 2.59546 118.681 2.486 118.819C2.3493 118.991 2.25913 119.18 2.20136 119.323C2.09167 119.596 2 119.956 2 120.25H4C4 120.292 3.99542 120.285 4.00961 120.222C4.02136 120.171 4.03845 120.115 4.05641 120.071C4.07827 120.017 4.08291 120.024 4.0515 120.064C4.03443 120.085 3.98549 120.143 3.89707 120.2C3.80375 120.261 3.64657 120.333 3.44003 120.333V118.333ZM2 120.25V122.083H4V120.25H2Z" fill="black" mask="url(#path-1-outside-1_0_559)"/>
</g>
<defs>
<filter id="filter0_d_0_559" x="0" y="0" width="206.699" height="127" filterUnits="userSpaceOnUse" color-interpolation-filters="sRGB">
<feFlood flood-opacity="0" result="BackgroundImageFix"/>
<feColorMatrix in="SourceAlpha" type="matrix" values="0 0 0 0 0 0 0 0 0 0 0 0 0 0 0 0 0 0 127 0" result="hardAlpha"/>
<feOffset dy="1"/>
<feGaussianBlur stdDeviation="1"/>
<feColorMatrix type="matrix" values="0 0 0 0 0 0 0 0 0 0 0 0 0 0 0 0 0 0 1 0"/>
<feBlend mode="normal" in2="BackgroundImageFix" result="effect1_dropShadow_0_559"/>
<feBlend mode="normal" in="SourceGraphic" in2="effect1_dropShadow_0_559" result="shape"/>
</filter>
</defs>
</svg>
