<svg width="25" height="28" viewBox="0 0 25 28" fill="none" xmlns="http://www.w3.org/2000/svg">
<g id="Pointer" filter="url(#filter0_d_0_499)">
<mask id="path-1-outside-1_0_499" maskUnits="userSpaceOnUse" x="2" y="1" width="21" height="24" fill="black">
<rect fill="white" x="2" y="1" width="21" height="24"/>
<path fill-rule="evenodd" clip-rule="evenodd" d="M10.3073 24C10.3073 24 7.08353 21.3306 5.94935 19.2857C4.81518 17.2409 2.66597 14.6359 3.04403 13C3.42209 11.3641 4.81518 10.8486 5.94935 12.0755C7.08353 13.3024 7.84754 15.9607 8.60366 15.5517C9.35978 15.1427 8.79269 11.2575 8.03657 9.00822C7.28045 6.7589 6.49214 2 8.03657 2C9.581 2 9.581 3.57143 10.3073 5.92857C11.0337 8.28571 10.4666 11.4286 11.0337 11.4286C11.6008 11.4286 11.8172 10.8796 11.8172 9.85714C11.8172 9.57929 11.8675 9.34446 11.9698 9.14978C12.2438 8.62809 12.8904 8.39477 13.939 8.39477C15.3789 8.39477 14.6653 11.4286 15.3917 11.4286C16.118 11.4286 16.118 11.493 16.118 9.85714C16.118 8.22127 16.7915 8.39477 18.2442 8.39477C19.6968 8.39477 18.9935 11.4286 19.7496 11.4286C20.5058 11.4286 19.7496 9.85714 20.476 9.85714C21.2023 9.85714 21.9286 10.105 21.9286 13.7857C21.9286 17.4664 22.3365 17.6498 21.2023 19.2857C20.0681 20.9216 19.0233 22.4286 19.0233 22.4286C19.0233 22.4286 19.0233 24 18.2442 24C17.465 24 17.0631 22.4286 16.118 22.4286C15.1728 22.4286 14.6653 24 14.6653 24H10.3073Z"/>
</mask>
<path fill-rule="evenodd" clip-rule="evenodd" d="M10.3073 24C10.3073 24 7.08353 21.3306 5.94935 19.2857C4.81518 17.2409 2.66597 14.6359 3.04403 13C3.42209 11.3641 4.81518 10.8486 5.94935 12.0755C7.08353 13.3024 7.84754 15.9607 8.60366 15.5517C9.35978 15.1427 8.79269 11.2575 8.03657 9.00822C7.28045 6.7589 6.49214 2 8.03657 2C9.581 2 9.581 3.57143 10.3073 5.92857C11.0337 8.28571 10.4666 11.4286 11.0337 11.4286C11.6008 11.4286 11.8172 10.8796 11.8172 9.85714C11.8172 9.57929 11.8675 9.34446 11.9698 9.14978C12.2438 8.62809 12.8904 8.39477 13.939 8.39477C15.3789 8.39477 14.6653 11.4286 15.3917 11.4286C16.118 11.4286 16.118 11.493 16.118 9.85714C16.118 8.22127 16.7915 8.39477 18.2442 8.39477C19.6968 8.39477 18.9935 11.4286 19.7496 11.4286C20.5058 11.4286 19.7496 9.85714 20.476 9.85714C21.2023 9.85714 21.9286 10.105 21.9286 13.7857C21.9286 17.4664 22.3365 17.6498 21.2023 19.2857C20.0681 20.9216 19.0233 22.4286 19.0233 22.4286C19.0233 22.4286 19.0233 24 18.2442 24C17.465 24 17.0631 22.4286 16.118 22.4286C15.1728 22.4286 14.6653 24 14.6653 24H10.3073Z" fill="white"/>
<path d="M10.3073 24L9.66956 24.7702L9.94706 25H10.3073V24ZM3.04403 13L4.01835 13.2252L3.04403 13ZM5.94935 12.0755L5.21504 12.7543L5.94935 12.0755ZM8.60366 15.5517L8.12791 14.6721V14.6721L8.60366 15.5517ZM8.03657 9.00822L8.98445 8.68959L8.03657 9.00822ZM8.03657 2V1V2ZM11.0337 11.4286L11.0337 12.4286L11.0337 11.4286ZM11.8172 9.85714H10.8172H11.8172ZM11.9698 9.14978L11.0844 8.6848L11.9698 9.14978ZM13.939 8.39477V7.39477V8.39477ZM15.3917 11.4286V10.4286V11.4286ZM16.118 9.85714L15.118 9.85714L16.118 9.85714ZM18.2442 8.39477V7.39477V8.39477ZM19.7496 11.4286V12.4286V11.4286ZM20.476 9.85714V8.85714V9.85714ZM21.9286 13.7857H20.9286H21.9286ZM21.2023 19.2857L22.0241 19.8555L21.2023 19.2857ZM19.0233 22.4286L18.2015 21.8588L18.0233 22.1158V22.4286H19.0233ZM18.2442 24V23V24ZM16.118 22.4286V21.4286V22.4286ZM14.6653 24V25H15.3932L15.6169 24.3073L14.6653 24ZM10.3073 24C10.9451 23.2298 10.9452 23.2298 10.9452 23.2299C10.9452 23.2299 10.9453 23.2299 10.9453 23.2299C10.9453 23.2299 10.9452 23.2299 10.9451 23.2298C10.945 23.2296 10.9446 23.2293 10.944 23.2289C10.9429 23.2279 10.941 23.2263 10.9383 23.2241C10.9331 23.2197 10.9248 23.2128 10.9137 23.2036C10.8916 23.185 10.8583 23.1569 10.8151 23.1201C10.7286 23.0464 10.6026 22.9379 10.4474 22.801C10.1364 22.5267 9.71062 22.1405 9.25135 21.6933C8.30801 20.7746 7.31362 19.6837 6.82384 18.8007L5.07486 19.7708C5.71926 20.9326 6.90386 22.1988 7.85597 23.1261C8.34442 23.6018 8.79544 24.0107 9.1244 24.3009C9.28912 24.4462 9.42384 24.5622 9.51809 24.6425C9.56523 24.6827 9.60229 24.7139 9.62796 24.7355C9.64079 24.7462 9.65079 24.7546 9.65777 24.7604C9.66127 24.7633 9.66401 24.7656 9.66598 24.7673C9.66697 24.7681 9.66776 24.7687 9.66836 24.7692C9.66865 24.7695 9.6689 24.7697 9.66911 24.7698C9.66921 24.7699 9.66932 24.77 9.66937 24.7701C9.66947 24.7701 9.66956 24.7702 10.3073 24ZM6.82384 18.8007C6.52291 18.2581 6.1589 17.6858 5.80713 17.1336C5.44862 16.5709 5.1 16.0248 4.79893 15.4953C4.49642 14.9632 4.26494 14.4869 4.12919 14.073C3.99048 13.6502 3.98201 13.3824 4.01835 13.2252L2.06971 12.7748C1.91702 13.4355 2.03542 14.1068 2.22881 14.6964C2.42515 15.295 2.73097 15.9045 3.06027 16.4837C3.39102 17.0655 3.76873 17.6563 4.12037 18.2083C4.47875 18.7708 4.8087 19.2909 5.07486 19.7708L6.82384 18.8007ZM4.01835 13.2252C4.1572 12.6244 4.42644 12.4474 4.53081 12.4124C4.59409 12.3912 4.83444 12.3426 5.21504 12.7543L6.68366 11.3967C5.93009 10.5815 4.9068 10.1772 3.89548 10.516C2.92525 10.841 2.30892 11.7398 2.06971 12.7748L4.01835 13.2252ZM5.21504 12.7543C5.67569 13.2526 6.06583 14.0544 6.54474 14.9138C6.75338 15.2882 7.00769 15.7227 7.2964 16.0338C7.44175 16.1904 7.66342 16.3918 7.96668 16.5059C8.31795 16.6382 8.71596 16.6279 9.07941 16.4313L8.12791 14.6721C8.30233 14.5778 8.51106 14.5739 8.67139 14.6342C8.78372 14.6765 8.81279 14.7277 8.76246 14.6734C8.65982 14.5628 8.51046 14.3327 8.29181 13.9403C7.91615 13.2661 7.35719 12.1253 6.68366 11.3967L5.21504 12.7543ZM9.07941 16.4313C9.48561 16.2116 9.67469 15.8373 9.76533 15.5922C9.86334 15.3271 9.91159 15.0362 9.9363 14.7632C9.9862 14.2118 9.95543 13.5432 9.88134 12.862C9.73245 11.493 9.38737 9.88822 8.98445 8.68959L7.08869 9.32686C7.44189 10.3776 7.75841 11.8401 7.89306 13.0782C7.96075 13.7006 7.97723 14.2206 7.94444 14.5829C7.92779 14.7669 7.90221 14.8641 7.88946 14.8986C7.86934 14.953 7.91074 14.7896 8.12791 14.6721L9.07941 16.4313ZM8.98445 8.68959C8.63098 7.63807 8.26387 5.97062 8.17163 4.59377C8.12463 3.89228 8.15637 3.36062 8.24334 3.04222C8.28642 2.88451 8.32185 2.8603 8.2953 2.88893C8.24126 2.94719 8.13673 3 8.03657 3V1C7.5503 1 7.13256 1.20153 6.82897 1.52882C6.55287 1.82649 6.40241 2.19164 6.31402 2.51522C6.13806 3.15942 6.12456 3.95806 6.1761 4.72746C6.28094 6.29239 6.68605 8.12905 7.08869 9.32686L8.98445 8.68959ZM8.03657 3C8.23941 3 8.29472 3.04601 8.31335 3.06103C8.35581 3.09524 8.44245 3.19076 8.55442 3.46198C8.66713 3.73497 8.76834 4.08993 8.89636 4.57532C9.01938 5.04181 9.16237 5.60869 9.35168 6.22305L11.263 5.63409C11.0891 5.06988 10.9597 4.5564 10.8302 4.0653C10.7057 3.5931 10.5742 3.11325 10.4031 2.69874C10.2312 2.28245 9.98285 1.83779 9.56824 1.5037C9.12981 1.15042 8.60595 1 8.03657 1V3ZM9.35168 6.22305C9.66711 7.24672 9.71017 8.48355 9.73039 9.58092C9.73979 10.0911 9.74468 10.6221 9.78956 11.0144C9.81096 11.2014 9.85086 11.459 9.95541 11.6946C10.0575 11.9245 10.3713 12.4286 11.0337 12.4286L11.0337 10.4286C11.5542 10.4286 11.7618 10.8344 11.7835 10.8833C11.8076 10.9377 11.7931 10.9315 11.7766 10.787C11.7456 10.5162 11.7406 10.1143 11.73 9.54408C11.7105 8.48074 11.6739 6.96756 11.263 5.63409L9.35168 6.22305ZM11.0337 12.4286C11.3441 12.4286 11.6655 12.3507 11.9544 12.156C12.2375 11.9651 12.4227 11.7069 12.5426 11.4528C12.7657 10.9796 12.8172 10.4015 12.8172 9.85714H10.8172C10.8172 10.0806 10.8051 10.2545 10.7854 10.3864C10.7653 10.5215 10.7412 10.5837 10.7336 10.5998C10.7284 10.6107 10.7532 10.5537 10.8363 10.4977C10.9251 10.4378 11.0068 10.4286 11.0337 10.4286L11.0337 12.4286ZM12.8172 9.85714C12.8172 9.69815 12.8459 9.63216 12.8551 9.61476L11.0844 8.6848C10.8891 9.05675 10.8172 9.46043 10.8172 9.85714H12.8172ZM12.8551 9.61476C12.8563 9.61248 12.8706 9.56752 13.0173 9.5121C13.186 9.44836 13.475 9.39477 13.939 9.39477V7.39477C12.844 7.39477 11.6427 7.62187 11.0844 8.6848L12.8551 9.61476ZM13.939 9.39477C13.9404 9.39477 13.9244 9.39481 13.8972 9.38665C13.8693 9.37828 13.8408 9.36461 13.8155 9.34707C13.7655 9.31244 13.7618 9.2871 13.7829 9.3278C13.8399 9.43814 13.8945 9.65721 13.9403 10.0326C13.9748 10.3162 14.0132 10.8211 14.0807 11.1535C14.1161 11.3277 14.1823 11.5934 14.3362 11.8352C14.5178 12.1206 14.8682 12.4286 15.3917 12.4286V10.4286C15.7335 10.4286 15.9473 10.6418 16.0233 10.7612C16.0716 10.8371 16.0631 10.8658 16.0408 10.7556C15.9928 10.5192 15.9834 10.2656 15.9256 9.79076C15.8789 9.40769 15.7966 8.8683 15.5597 8.40981C15.4338 8.16609 15.244 7.90373 14.9546 7.70319C14.6547 7.49534 14.3062 7.39477 13.939 7.39477V9.39477ZM15.3917 12.4286C15.499 12.4286 15.7761 12.438 15.9993 12.3953C16.1408 12.3683 16.3299 12.3117 16.5165 12.1803C16.7111 12.0432 16.8427 11.8674 16.928 11.6905C17.0704 11.3951 17.0942 11.0635 17.1054 10.8434C17.1183 10.5879 17.118 10.2546 17.118 9.85714L15.118 9.85714C15.118 10.2776 15.1177 10.5497 15.1079 10.7422C15.1032 10.8359 15.0972 10.8855 15.0935 10.9078C15.0892 10.9332 15.0928 10.8917 15.1264 10.8221C15.1663 10.7394 15.2412 10.6322 15.3648 10.5451C15.4805 10.4637 15.5844 10.4384 15.6239 10.4309C15.6567 10.4246 15.6642 10.4273 15.6108 10.4284C15.5548 10.4295 15.5013 10.4286 15.3917 10.4286V12.4286ZM17.118 9.85714C17.118 9.49607 17.1583 9.34992 17.1739 9.31113C17.1778 9.30151 17.1698 9.32455 17.1391 9.35751C17.1071 9.39177 17.0736 9.41206 17.0545 9.42087C17.0407 9.42724 17.0942 9.40095 17.3338 9.39262C17.5818 9.384 17.8279 9.39477 18.2442 9.39477V7.39477C17.9341 7.39477 17.5512 7.38386 17.2644 7.39383C16.9692 7.40409 16.5819 7.43666 16.2181 7.60414C15.7979 7.79759 15.4935 8.12865 15.3179 8.5659C15.1618 8.95467 15.118 9.40028 15.118 9.85714L17.118 9.85714ZM18.2442 9.39477C18.2471 9.39477 18.2329 9.39502 18.2075 9.38747C18.1814 9.37972 18.1544 9.36698 18.1303 9.3505C18.0826 9.31787 18.0798 9.2945 18.1016 9.33569C18.1604 9.44713 18.217 9.66638 18.2667 10.0427C18.3046 10.3291 18.3483 10.8325 18.4234 11.1711C18.4628 11.3484 18.5354 11.6158 18.6985 11.8575C18.8912 12.1432 19.2436 12.4286 19.7496 12.4286V10.4286C20.0667 10.4286 20.2756 10.6192 20.3564 10.7389C20.4075 10.8147 20.3997 10.8451 20.376 10.738C20.3249 10.5078 20.3119 10.2527 20.2495 9.7806C20.199 9.39851 20.1117 8.85932 19.8702 8.40192C19.7418 8.15869 19.5497 7.89831 19.2595 7.69976C18.9591 7.49429 18.6111 7.39477 18.2442 7.39477V9.39477ZM19.7496 12.4286C20.0257 12.4286 20.3324 12.3527 20.5971 12.1385C20.8501 11.9338 20.9722 11.6774 21.0331 11.4858C21.1384 11.1541 21.1253 10.7788 21.1239 10.6334C21.1215 10.3789 21.1302 10.3559 21.1222 10.3833C21.1111 10.4213 21.0643 10.559 20.9167 10.6851C20.753 10.8248 20.5761 10.8571 20.476 10.8571V8.85714C20.1942 8.85714 19.8821 8.93856 19.6178 9.16423C19.3696 9.37623 19.2567 9.63677 19.2026 9.82208C19.1084 10.1441 19.1227 10.5139 19.124 10.6523C19.1264 10.8997 19.1151 10.9174 19.1269 10.8803C19.141 10.836 19.1924 10.7023 19.3391 10.5836C19.4977 10.4553 19.6626 10.4286 19.7496 10.4286V12.4286ZM20.476 10.8571C20.6134 10.8571 20.6144 10.8728 20.5808 10.8569C20.522 10.829 20.5345 10.8011 20.5881 10.9037C20.7375 11.1902 20.9286 11.9517 20.9286 13.7857H22.9286C22.9286 11.939 22.7565 10.7362 22.3613 9.9786C22.1424 9.55918 21.8372 9.23927 21.4379 9.04987C21.0639 8.87245 20.7017 8.85714 20.476 8.85714V10.8571ZM20.9286 13.7857C20.9286 14.7252 20.9547 15.4421 20.9753 16.0044C20.9964 16.5821 21.0091 16.9481 20.9923 17.2466C20.9771 17.5188 20.9383 17.7001 20.8651 17.8841C20.7852 18.0849 20.6476 18.3306 20.3805 18.7159L22.0241 19.8555C22.324 19.4229 22.5608 19.0322 22.7234 18.6235C22.8927 18.198 22.9647 17.7967 22.9892 17.3585C23.0123 16.9465 22.9938 16.4743 22.974 15.9313C22.9535 15.3729 22.9286 14.6866 22.9286 13.7857H20.9286ZM20.3805 18.7159C19.8134 19.5339 19.2687 20.3196 18.8657 20.9008C18.6642 21.1914 18.4981 21.4309 18.3825 21.5978C18.3246 21.6812 18.2794 21.7465 18.2486 21.7909C18.2332 21.8131 18.2214 21.83 18.2135 21.8415C18.2095 21.8472 18.2065 21.8515 18.2045 21.8544C18.2035 21.8559 18.2028 21.857 18.2023 21.8577C18.202 21.8581 18.2018 21.8583 18.2017 21.8585C18.2016 21.8586 18.2016 21.8587 18.2015 21.8587C18.2015 21.8588 18.2015 21.8588 18.2015 21.8588C18.2015 21.8588 18.2015 21.8588 19.0233 22.4286C19.8451 22.9983 19.8451 22.9983 19.8451 22.9983C19.8451 22.9983 19.8451 22.9983 19.8452 22.9983C19.8452 22.9982 19.8452 22.9982 19.8453 22.9981C19.8454 22.9979 19.8456 22.9976 19.8459 22.9972C19.8464 22.9965 19.8471 22.9954 19.8481 22.994C19.8502 22.9911 19.8532 22.9867 19.8571 22.981C19.865 22.9696 19.8768 22.9526 19.8922 22.9304C19.923 22.886 19.9682 22.8207 20.0261 22.7373C20.1418 22.5705 20.3078 22.331 20.5093 22.0404C20.9123 21.4591 21.457 20.6734 22.0241 19.8555L20.3805 18.7159ZM19.0233 22.4286C18.0233 22.4286 18.0233 22.4283 18.0233 22.4281C18.0233 22.428 18.0233 22.4278 18.0233 22.4277C18.0233 22.4274 18.0233 22.4271 18.0233 22.4269C18.0233 22.4264 18.0233 22.4261 18.0233 22.4258C18.0233 22.4252 18.0233 22.425 18.0233 22.4251C18.0233 22.4253 18.0233 22.4269 18.0233 22.4297C18.0232 22.4354 18.0229 22.4459 18.0224 22.4607C18.0214 22.4905 18.0191 22.536 18.0145 22.5918C18.0049 22.7077 17.9867 22.8469 17.9553 22.9737C17.9203 23.1146 17.8875 23.164 17.8922 23.1577C17.8996 23.1477 17.9331 23.1058 18.0021 23.066C18.0778 23.0224 18.1645 23 18.2442 23V25C18.8354 25 19.2525 24.68 19.497 24.3512C19.7209 24.0503 19.8341 23.7068 19.8965 23.4549C19.9625 23.1888 19.993 22.9352 20.0077 22.7565C20.0153 22.6649 20.0192 22.5877 20.0212 22.5315C20.0222 22.5033 20.0227 22.4801 20.023 22.4627C20.0231 22.4541 20.0232 22.4468 20.0232 22.4411C20.0233 22.4382 20.0233 22.4357 20.0233 22.4336C20.0233 22.4326 20.0233 22.4317 20.0233 22.4308C20.0233 22.4304 20.0233 22.43 20.0233 22.4296C20.0233 22.4294 20.0233 22.4292 20.0233 22.4291C20.0233 22.4288 20.0233 22.4286 19.0233 22.4286ZM18.2442 23C18.4095 23 18.4703 23.0886 18.3889 23.0146C18.2992 22.933 18.2048 22.8141 18.0225 22.5875C17.87 22.3979 17.645 22.1197 17.3669 21.8956C17.0731 21.6587 16.6556 21.4286 16.118 21.4286V23.4286C16.0529 23.4286 16.0401 23.3949 16.1118 23.4527C16.1992 23.5231 16.3006 23.6378 16.4641 23.8411C16.5979 24.0074 16.8091 24.2813 17.0434 24.4943C17.286 24.7149 17.6893 25 18.2442 25V23ZM16.118 21.4286C15.0737 21.4286 14.4505 22.2653 14.1887 22.6851C14.0302 22.9392 13.9141 23.1859 13.8385 23.3647C13.8 23.4556 13.7705 23.5325 13.7499 23.5888C13.7395 23.6171 13.7314 23.6404 13.7253 23.6579C13.7223 23.6667 13.7199 23.674 13.7179 23.6798C13.717 23.6827 13.7161 23.6853 13.7154 23.6874C13.7151 23.6885 13.7148 23.6895 13.7145 23.6903C13.7143 23.6908 13.7142 23.6912 13.7141 23.6916C13.714 23.6918 13.7139 23.692 13.7139 23.6921C13.7138 23.6924 13.7137 23.6927 14.6653 24C15.6169 24.3073 15.6168 24.3076 15.6168 24.3078C15.6167 24.3079 15.6167 24.3081 15.6166 24.3083C15.6165 24.3086 15.6164 24.3088 15.6164 24.3091C15.6162 24.3096 15.6161 24.31 15.616 24.3103C15.6157 24.3109 15.6157 24.3112 15.6157 24.3111C15.6157 24.311 15.6162 24.3095 15.6171 24.3068C15.619 24.3013 15.6227 24.2908 15.6281 24.2761C15.6389 24.2465 15.6564 24.2007 15.6803 24.1442C15.7293 24.0284 15.7992 23.8822 15.8857 23.7435C15.9758 23.5991 16.06 23.5016 16.1246 23.4488C16.1832 23.401 16.176 23.4286 16.118 23.4286V21.4286ZM14.6653 23H10.3073V25H14.6653V23Z" fill="black" mask="url(#path-1-outside-1_0_499)"/>
</g>
<defs>
<filter id="filter0_d_0_499" x="0" y="0" width="25" height="28" filterUnits="userSpaceOnUse" color-interpolation-filters="sRGB">
<feFlood flood-opacity="0" result="BackgroundImageFix"/>
<feColorMatrix in="SourceAlpha" type="matrix" values="0 0 0 0 0 0 0 0 0 0 0 0 0 0 0 0 0 0 127 0" result="hardAlpha"/>
<feOffset dy="1"/>
<feGaussianBlur stdDeviation="1"/>
<feColorMatrix type="matrix" values="0 0 0 0 0 0 0 0 0 0 0 0 0 0 0 0 0 0 1 0"/>
<feBlend mode="normal" in2="BackgroundImageFix" result="effect1_dropShadow_0_499"/>
<feBlend mode="normal" in="SourceGraphic" in2="effect1_dropShadow_0_499" result="shape"/>
</filter>
</defs>
</svg>
